<mxfile host="app.diagrams.net" modified="2021-08-27T16:12:24.888Z" agent="5.0 (Macintosh; Intel Mac OS X 10_15_7) AppleWebKit/537.36 (KHTML, like Gecko) Chrome/92.0.4515.159 Safari/537.36" etag="Zie53NvNG1otSp6IsPk4" version="15.0.2" type="github">
  <diagram id="hE2YBDvgGHqyTkKCP46g" name="Page-1">
    <mxGraphModel dx="1756" dy="937" grid="1" gridSize="10" guides="1" tooltips="1" connect="1" arrows="1" fold="1" page="1" pageScale="1" pageWidth="850" pageHeight="1100" math="0" shadow="0">
      <root>
        <mxCell id="0" />
        <mxCell id="1" parent="0" />
        <mxCell id="vJXU5ccwv93jfNA9Mbtt-1" value="&lt;font style=&quot;font-size: 16px&quot;&gt;PIM Views Diagram&lt;/font&gt;" style="text;html=1;strokeColor=none;fillColor=none;align=center;verticalAlign=middle;whiteSpace=wrap;rounded=0;" vertex="1" parent="1">
          <mxGeometry x="170" y="20" width="430" height="20" as="geometry" />
        </mxCell>
        <mxCell id="vJXU5ccwv93jfNA9Mbtt-8" value="Login" style="whiteSpace=wrap;html=1;align=center;" vertex="1" parent="1">
          <mxGeometry x="110" y="90" width="100" height="90" as="geometry" />
        </mxCell>
        <mxCell id="vJXU5ccwv93jfNA9Mbtt-9" value="Product List" style="whiteSpace=wrap;html=1;align=center;" vertex="1" parent="1">
          <mxGeometry x="360" y="90" width="100" height="90" as="geometry" />
        </mxCell>
        <mxCell id="vJXU5ccwv93jfNA9Mbtt-11" value="Create Product" style="whiteSpace=wrap;html=1;align=center;" vertex="1" parent="1">
          <mxGeometry x="610" y="90" width="100" height="90" as="geometry" />
        </mxCell>
        <mxCell id="vJXU5ccwv93jfNA9Mbtt-12" value="Create Variant" style="whiteSpace=wrap;html=1;align=center;" vertex="1" parent="1">
          <mxGeometry x="610" y="230" width="100" height="90" as="geometry" />
        </mxCell>
      </root>
    </mxGraphModel>
  </diagram>
</mxfile>
